<?xml version="1.0" encoding="UTF-8"?>
<svg width="16px" height="16px" viewBox="0 0 16 16" version="1.1" xmlns="http://www.w3.org/2000/svg" xmlns:xlink="http://www.w3.org/1999/xlink">
    <!-- Generator: Sketch 60.1 (88133) - https://sketch.com -->
    <title>plus copy 2</title>
    <desc>Created with Sketch.</desc>
    <g id="Doctor-App" stroke="none" stroke-width="1" fill="none" fill-rule="evenodd">
        <g id="7--Terms-and-conditions" transform="translate(-1127.000000, -197.000000)" fill="#F26363" fill-rule="nonzero">
            <g id="plus-copy-2" transform="translate(1134.717514, 204.717514) rotate(-45.000000) translate(-1134.717514, -204.717514) translate(1124.717514, 194.217514)">
                <path d="M19.21875,10.1182449 L10.78125,10.1182449 L10.78125,1.68074494 C10.78125,1.24926056 10.4314844,0.899494937 10,0.899494937 C9.56851562,0.899494937 9.21875,1.24926056 9.21875,1.68074494 L9.21875,10.1182449 L0.78125,10.1182449 C0.349765625,10.1182449 0,10.4680106 0,10.8994949 C0,11.3309793 0.349765625,11.6807449 0.78125,11.6807449 L9.21875,11.6807449 L9.21875,20.1182449 C9.21875,20.5497293 9.56851562,20.8994949 10,20.8994949 C10.4314844,20.8994949 10.78125,20.5497293 10.78125,20.1182449 L10.78125,11.6807449 L19.21875,11.6807449 C19.6502344,11.6807449 20,11.3309793 20,10.8994949 C20,10.4680106 19.6502344,10.1182449 19.21875,10.1182449 Z" id="Path"></path>
            </g>
        </g>
    </g>
</svg>