<?xml version="1.0" encoding="UTF-8"?>
<svg width="14px" height="12px" viewBox="0 0 14 12" version="1.1" xmlns="http://www.w3.org/2000/svg" xmlns:xlink="http://www.w3.org/1999/xlink">
    <!-- Generator: Sketch 60.1 (88133) - https://sketch.com -->
    <title>Group 3 Copy</title>
    <desc>Created with Sketch.</desc>
    <g id="Doctor-App" stroke="none" stroke-width="1" fill="none" fill-rule="evenodd">
        <g id="9--offline-payment-confiramtion" transform="translate(-462.000000, -489.000000)" fill="#A3A3A3" fill-rule="nonzero">
            <g id="Group-3-Copy" transform="translate(462.000000, 489.000000)">
                <g id="web">
                    <path d="M6.41661471,5.41935484 C7.16709941,5.41935484 7.77777778,4.81159412 7.77777778,4.06456786 C7.77777778,3.31743814 7.16709941,2.70967742 6.41661471,2.70967742 C5.66612996,2.70967742 5.05555556,3.31743814 5.05555556,4.06456786 C5.05555556,4.81159412 5.66612996,5.41935484 6.41661471,5.41935484 L6.41661471,5.41935484 Z M6.41661471,3.50429815 C6.72699522,3.50429815 6.97947824,3.75561767 6.97947824,4.06456786 C6.97947824,4.37341458 6.72699522,4.6247341 6.41661471,4.6247341 C6.10633811,4.6247341 5.8538551,4.37341458 5.8538551,4.06456786 C5.8538551,3.75561767 6.10633811,3.50429815 6.41661471,3.50429815 Z" id="Shape"></path>
                    <path d="M13.4888001,0 L0.511199938,0 C0.229324348,0 0,0.229188542 0,0.510897205 L0,11.4891028 C0,11.7708115 0.229324348,12 0.511199938,12 L13.4888001,12 C13.7706757,12 14,11.7708115 14,11.4891028 L14,0.510897205 C14,0.229188542 13.7706757,0 13.4888001,0 Z M13.1796875,0.819826711 L13.1796875,7.30755955 L10.599762,4.72905509 C10.4315338,4.56124681 10.1579895,4.56135355 9.98986816,4.72937534 L6.34107972,8.37600297 L4.01034545,6.04675573 C3.92884827,5.96520005 3.82043457,5.92025904 3.70507812,5.92025904 C3.58982848,5.92025904 3.48152161,5.96509331 3.40002441,6.04654225 L0.8203125,8.62472645 L0.8203125,0.819826711 L13.1796875,0.819826711 Z M0.8203125,11.1801733 L0.8203125,9.7841194 L3.70507812,6.90106214 L6.03570557,9.23030938 C6.11730957,9.31186506 6.22572327,9.35691284 6.34107972,9.35691284 C6.45622253,9.35691284 6.56463623,9.3119718 6.64602662,9.23052289 L10.2949219,5.58378849 L13.1797943,8.4669525 L13.1797943,11.1801733 L0.8203125,11.1801733 Z" id="Shape"></path>
                </g>
            </g>
        </g>
    </g>
</svg>