<?xml version="1.0" encoding="UTF-8"?>
<svg width="78px" height="68px" viewBox="0 0 78 68" version="1.1" xmlns="http://www.w3.org/2000/svg" xmlns:xlink="http://www.w3.org/1999/xlink">
    <!-- Generator: Sketch 60.1 (88133) - https://sketch.com -->
    <title>Group 3</title>
    <desc>Created with Sketch.</desc>
    <g id="Doctor-App" stroke="none" stroke-width="1" fill="none" fill-rule="evenodd">
        <g id="8--consultancy-options" transform="translate(-77.000000, -411.000000)" fill="#47D68C" fill-rule="nonzero">
            <g id="Group-3" transform="translate(77.000000, 411.000000)">
                <g id="web" transform="translate(0.000000, 0.500000)">
                    <path d="M35.7497105,30.2580645 C39.9309824,30.2580645 43.3333333,26.8647339 43.3333333,22.6938372 C43.3333333,18.5223629 39.9309824,15.1290323 35.7497105,15.1290323 C31.5684383,15.1290323 28.1666667,18.5223629 28.1666667,22.6938372 C28.1666667,26.8647339 31.5684383,30.2580645 35.7497105,30.2580645 L35.7497105,30.2580645 Z M35.7497105,19.5656647 C37.4789734,19.5656647 38.8856645,20.9688654 38.8856645,22.6938372 C38.8856645,24.4182314 37.4789734,25.8214321 35.7497105,25.8214321 C34.0210266,25.8214321 32.6143355,24.4182314 32.6143355,22.6938372 C32.6143355,20.9688654 34.0210266,19.5656647 35.7497105,19.5656647 Z" id="Shape"></path>
                    <path d="M75.1518861,0 L2.84811394,0 C1.27766422,0 0,1.27963603 0,2.85250939 L0,64.1474905 C0,65.720364 1.27766422,67 2.84811394,67 L75.1518861,67 C76.7223358,67 78,65.720364 78,64.1474905 L78,2.85250939 C78,1.27963603 76.7223358,0 75.1518861,0 Z M73.4296875,4.5773658 L73.4296875,40.8005408 L59.0558167,26.4038909 C58.1185456,25.4669613 56.594513,25.4675573 55.6578369,26.405679 L35.3288727,46.7660166 L22.3433532,33.7610528 C21.8892975,33.3057003 21.2852783,33.0547796 20.6425781,33.0547796 C20.000473,33.0547796 19.397049,33.3051043 18.9429932,33.7598609 L4.5703125,48.1547227 L4.5703125,4.5773658 L73.4296875,4.5773658 Z M4.5703125,62.4226342 L4.5703125,54.628 L20.6425781,38.5309303 L33.6275024,51.535894 C34.0821533,51.9912466 34.6861725,52.2427634 35.3288727,52.2427634 C35.9703827,52.2427634 36.5744019,51.9918426 37.0278626,51.5370861 L57.3574219,31.1761524 L73.4302826,47.2738181 L73.4302826,62.4226342 L4.5703125,62.4226342 Z" id="Shape"></path>
                </g>
            </g>
        </g>
    </g>
</svg>