<?xml version="1.0" encoding="UTF-8"?>
<svg width="14px" height="18px" viewBox="0 0 14 18" version="1.1" xmlns="http://www.w3.org/2000/svg" xmlns:xlink="http://www.w3.org/1999/xlink">
    <!-- Generator: Sketch 60.1 (88133) - https://sketch.com -->
    <title>interface</title>
    <desc>Created with Sketch.</desc>
    <g id="Doctor-App" stroke="none" stroke-width="1" fill="none" fill-rule="evenodd">
        <g id="13--prescription-list" transform="translate(-229.000000, -283.000000)" fill="#FF0000" fill-rule="nonzero">
            <g id="Group-7" transform="translate(81.000000, 280.000000)">
                <g id="Group-3" transform="translate(148.000000, 3.000000)">
                    <g id="interface">
                        <path d="M13.8860677,3.859875 L9.99716667,0.109863281 C9.92425,0.0395507812 9.82552083,0 9.72219792,0 L1.55553125,0 C0.697630208,0 0,0.672714844 0,1.50001172 L0,16.5000234 C0,17.3272852 0.697630208,18 1.55556771,18 L12.4444687,18 C13.3023698,18 14,17.3272852 14,16.4999883 L14,4.12498828 C14,4.02539062 13.9589844,3.9301875 13.8860677,3.859875 Z M10.111099,1.28028516 L12.6722969,3.75001172 L10.8888646,3.75001172 C10.4601146,3.75001172 10.111099,3.41346094 10.111099,3.00002344 L10.111099,1.28028516 L10.111099,1.28028516 Z M13.2222344,16.4999883 C13.2222344,16.9134258 12.8732188,17.2499766 12.4444688,17.2499766 L1.55556771,17.2499766 C1.12681771,17.2499766 0.777802083,16.9134258 0.777802083,16.4999883 L0.777802083,1.50001172 C0.777802083,1.08657422 1.12681771,0.750023438 1.55556771,0.750023438 L9.33333333,0.750023438 L9.33333333,3.00002344 C9.33333333,3.82728516 10.0309635,4.5 10.888901,4.5 L13.2222344,4.5 L13.2222344,16.4999883 Z" id="Shape"></path>
                        <path d="M9.41197266,11.0086758 C9.06480469,10.7354766 8.73486328,10.4546133 8.51513672,10.2348867 C8.22949219,9.94924219 7.97496094,9.67238672 7.75379297,9.40871484 C8.09878125,8.34267188 8.25002344,7.79300391 8.25002344,7.50001172 C8.25002344,6.25526953 7.80030469,6 7.12502344,6 C6.61195313,6 6.00002344,6.26658984 6.00002344,7.53590625 C6.00002344,8.09548828 6.30655078,8.7748125 6.91408594,9.56435156 C6.76541016,10.0180781 6.59071875,10.5414141 6.39444141,11.1313711 C6.29994141,11.4144492 6.19742578,11.6766445 6.08900391,11.919082 C6.00076172,11.9582813 5.91505078,11.9981836 5.83229297,12.0395625 C5.53420313,12.188625 5.251125,12.3226406 4.98854297,12.4471641 C3.79101562,13.0140586 3,13.3890703 3,14.1295313 C3,14.6671406 3.58412109,15 4.125,15 C4.82225391,15 5.87511328,14.0687109 6.64415625,12.4998633 C7.44248438,12.1849336 8.43494531,11.9516367 9.21826172,11.8055273 C9.84594141,12.2881875 10.5391875,12.75 10.875,12.75 C11.8048125,12.75 12,12.2123906 12,11.761582 C12,10.8749766 10.987043,10.8749766 10.4999883,10.8749766 C10.3487461,10.8750117 9.94300781,10.9196953 9.41197266,11.0086758 Z M4.125,14.2500117 C3.91075781,14.2500117 3.76573828,14.1489375 3.74998828,14.1295313 C3.74998828,13.8636445 4.54283203,13.4879297 5.30969531,13.1246602 C5.35838672,13.1015977 5.40785156,13.0785 5.45801953,13.0546992 C4.89478125,13.8713789 4.33776562,14.2500117 4.125,14.2500117 Z M6.75001172,7.53590625 C6.75001172,6.75002344 6.99392578,6.75002344 7.12502344,6.75002344 C7.39017188,6.75002344 7.50003516,6.75002344 7.50003516,7.50001172 C7.50003516,7.65821484 7.39456641,8.05372266 7.20155859,8.67117188 C6.90708984,8.21779688 6.75001172,7.82925 6.75001172,7.53590625 Z M7.03748437,11.5664297 C7.06093359,11.50125 7.08364453,11.435332 7.10561719,11.3686758 C7.24476562,10.9511953 7.37002734,10.5761836 7.48171875,10.238543 C7.63735547,10.4099297 7.80508594,10.5853594 7.98491016,10.7651484 C8.05522266,10.8354609 8.22952734,10.9936641 8.46173438,11.1917695 C7.9995,11.2924922 7.50769922,11.4173672 7.03748437,11.5664297 Z M11.2500117,11.7616172 C11.2500117,11.9300859 11.2500117,12.0000117 10.9021055,12.0022266 C10.7999414,11.9802539 10.5637266,11.8411055 10.2722109,11.6426133 C10.3780312,11.6309063 10.456043,11.6250352 10.4999883,11.6250352 C11.0540859,11.6250352 11.2111992,11.6792109 11.2500117,11.7616172 Z" id="Shape"></path>
                    </g>
                </g>
            </g>
        </g>
    </g>
</svg>