<?xml version="1.0" encoding="UTF-8"?>
<svg width="14px" height="14px" viewBox="0 0 14 14" version="1.1" xmlns="http://www.w3.org/2000/svg" xmlns:xlink="http://www.w3.org/1999/xlink">
    <!-- Generator: Sketch 60.1 (88133) - https://sketch.com -->
    <title>business</title>
    <desc>Created with Sketch.</desc>
    <g id="Doctor-App" stroke="none" stroke-width="1" fill="none" fill-rule="evenodd">
        <g id="9--offline-payment-confiramtion" transform="translate(-461.000000, -525.000000)" fill="#A3A3A3" fill-rule="nonzero">
            <g id="business" transform="translate(461.000000, 525.000000)">
                <path d="M7,0 C3.140375,0 0,3.140375 0,7 C0,10.859625 3.140375,14 7,14 C10.859625,14 14,10.859625 14,7 C14,3.140375 10.859625,0 7,0 Z M7,13.125 C3.623375,13.125 0.875,10.3775 0.875,7 C0.875,3.6225 3.623375,0.875 7,0.875 C10.376625,0.875 13.125,3.6225 13.125,7 C13.125,10.3775 10.376625,13.125 7,13.125 Z" id="Shape"></path>
                <path d="M9.50002083,4.77777778 L8.94904379,4.77777778 C8.87404691,4.44711111 8.70805383,4.14844444 8.48706304,3.88888889 L9.50002083,3.88888889 C9.77600933,3.88888889 10,3.68977778 10,3.44444444 C10,3.19911111 9.77600933,3 9.50002083,3 L6.50014583,3 L4.50022916,3 C4.22424066,3 4.00024999,3.19911111 4.00024999,3.44444444 C4.00024999,3.68977778 4.22424066,3.88888889 4.50022916,3.88888889 L6.50014583,3.88888889 C7.1511187,3.88888889 7.70109579,4.26133333 7.90808716,4.77777778 L4.50022916,4.77777778 C4.22424066,4.77777778 4.00024999,4.97688889 4.00024999,5.22222222 C4.00024999,5.46755556 4.22424066,5.66666667 4.50022916,5.66666667 L7.90808716,5.66666667 C7.70109579,6.18311111 7.1511187,6.55555556 6.50014583,6.55555556 L4.50022916,6.55555556 C4.43523187,6.55555556 4.37023457,6.56711111 4.30923712,6.58933333 C4.1872422,6.63466667 4.08924628,6.72088889 4.03824841,6.83022222 C3.98725053,6.93866667 3.98725053,7.06133333 4.03824841,7.16977778 C4.06324736,7.22488889 4.10024582,7.27377778 4.14724386,7.31466667 L8.14607725,10.8693333 C8.24407316,10.9564444 8.37206783,11 8.5000625,11 C8.62805716,11 8.75605183,10.9564444 8.85404775,10.8702222 C9.04903962,10.6968889 9.04903962,10.4151111 8.85404775,10.2417778 L5.70717887,7.44444444 L6.50014583,7.44444444 C7.7080955,7.44444444 8.71705346,6.68 8.94904379,5.66666667 L9.50002083,5.66666667 C9.77600933,5.66666667 10,5.46755556 10,5.22222222 C10,4.97688889 9.77600933,4.77777778 9.50002083,4.77777778 Z" id="Path"></path>
            </g>
        </g>
    </g>
</svg>