<?xml version="1.0" encoding="UTF-8"?>
<svg width="74px" height="74px" viewBox="0 0 74 74" version="1.1" xmlns="http://www.w3.org/2000/svg" xmlns:xlink="http://www.w3.org/1999/xlink">
    <!-- Generator: Sketch 60.1 (88133) - https://sketch.com -->
    <title>success</title>
    <desc>Created with Sketch.</desc>
    <g id="Doctor-App" stroke="none" stroke-width="1" fill="none" fill-rule="evenodd">
        <g id="12--offline-book-success" transform="translate(-684.000000, -428.000000)" fill="#47D68C" fill-rule="nonzero">
            <g id="Group-5">
                <g id="success" transform="translate(684.000000, 428.000000)">
                    <path d="M37,0 C16.5987692,0 0,16.5973462 0,37 C0,57.4026538 16.5987692,74 37,74 C57.4012308,74 74,57.4026538 74,37 C74,16.5973462 57.4012308,0 37,0 Z M37,71.1538462 C18.1684231,71.1538462 2.84615385,55.8315769 2.84615385,37 C2.84615385,18.1684231 18.1684231,2.84615385 37,2.84615385 C55.8315769,2.84615385 71.1538462,18.1684231 71.1538462,37 C71.1538462,55.8315769 55.8315769,71.1538462 37,71.1538462 Z" id="Shape"></path>
                    <path d="M54.5018939,21.4878768 L32.5468689,46.5577817 L19.3201413,35.8178867 C18.7058749,35.3176485 17.8044746,35.4205961 17.3130615,36.0440813 C16.8202198,36.6704664 16.9202166,37.5824948 17.5359116,38.0827329 L31.8211774,49.6824575 C32.0840263,49.8956025 32.3997307,50 32.7140065,50 C33.1082798,50 33.5011247,49.8347039 33.7825444,49.5128116 L56.6389696,23.4134311 C57.1632389,22.8160453 57.1103834,21.8982171 56.5204019,21.3675297 C55.9289919,20.8339424 55.0275917,20.8875911 54.5018939,21.4878768 Z" id="Path"></path>
                </g>
            </g>
        </g>
    </g>
</svg>