<?xml version="1.0" encoding="UTF-8"?>
<svg width="80px" height="50px" viewBox="0 0 80 50" version="1.1" xmlns="http://www.w3.org/2000/svg" xmlns:xlink="http://www.w3.org/1999/xlink">
    <!-- Generator: Sketch 60.1 (88133) - https://sketch.com -->
    <title>Group 4</title>
    <desc>Created with Sketch.</desc>
    <g id="Doctor-App" stroke="none" stroke-width="1" fill="none" fill-rule="evenodd">
        <g id="8--consultancy-options" transform="translate(-77.000000, -188.000000)" fill="#47D68C" fill-rule="nonzero">
            <g id="Group-4" transform="translate(77.000000, 188.000000)">
                <g id="video-camera">
                    <path d="M79.1697563,4.45954824 C78.654661,4.15681631 78.0177437,4.14499606 77.4920551,4.42934065 L59.1366525,14.3702391 L59.1366525,8.40556869 C59.1313559,3.76543218 55.3403071,0.00525348043 50.6620763,0 L8.47457627,0 C3.79634542,0.00525348043 0.00529661017,3.76543218 0,8.40556869 L0,41.5944313 C0.00529661017,46.234568 3.79634542,49.9947465 8.47457627,50 L50.6620763,50 C55.3403071,49.9947465 59.1313559,46.234568 59.1366525,41.5944313 L59.1366525,35.7381141 L77.4927171,45.6790123 C78.0177437,45.9633569 78.6553231,45.9521933 79.1697563,45.6494616 C79.6848517,45.346073 80,44.7964276 80,44.203441 L80,5.904912 C80,5.31126872 79.6841897,4.76228001 79.1697563,4.45954824 Z M55.745498,41.595088 C55.7428495,44.3794326 53.4679556,46.6351458 50.6607522,46.6384292 L8.47457627,46.6384292 C5.66737288,46.6351458 3.39314085,44.3794326 3.38983051,41.595088 L3.38983051,8.40556869 C3.39314085,5.6218807 5.66737288,3.36551086 8.47457627,3.36222748 L50.6620763,3.36222748 C53.4686176,3.36551086 55.7435117,5.6218807 55.746822,8.40556869 L55.745498,41.595088 Z M76.6101695,41.3705017 L59.1366525,31.90767 L59.1366525,18.200683 L76.6101695,8.73850805 L76.6101695,41.3705017 Z" id="Shape"></path>
                </g>
            </g>
        </g>
    </g>
</svg>